# xmcd
#
# Track frame offsets:
#	150
#	12895
#	29260
#	39972
#	51960
#	63530
#	76805
#	91947
#	106282
#	117702
#	130895
#	143307
#	160722
#	170670
#	183440
#	198752
#
# Disc length: 2823
#
# Revision: 5
# Processed by: cddbd v1.5.1PL0 Copyright (c) Steve Scherf et al.
# Submitted via: Grip 2.2
# Normalized: r3:DSETVAR1,TDELIM( - ),TSWAP
#
DISCID=c90b0510
DTITLE=Various Artist - Swing Out Sisters
DYEAR=1900
DGENRE=
TTITLE0=Dinah Washington - Mad About The Boy
TTITLE1=Nina Simone - My Baby Just Cares For Me
TTITLE2=Betty Everett - You're No Good
TTITLE3=Ella Fitzgerald - A Tisket A Tasket
TTITLE4=Sarah Vaughan - Gentleman Friend
TTITLE5=Billie Holiday - God Bless The Child
TTITLE6=Little Esther - Release Me
TTITLE7=Ella Fitzgerald - My Heart Belongs To Daddy
TTITLE8=Dinah Washington - Our Love Is Here To Stay
TTITLE9=Billie Holiday - Summertime
TTITLE10=Sarah Vaughan - Sometimes I Feel Like A Motherless Child
TTITLE11=Nina Simone - Ain't Got No (I Got Life) (live)
TTITLE12=Betty Everett - Getting Mighty Crowded
TTITLE13=Sarah Vaughan - What A Differenc A Day Made
TTITLE14=Dinah Washington - Smoke Gets In Your Eyes
TTITLE15=Billie Holiday - That Ol' Devil Called Love
EXTD=
EXTT0=
EXTT1=
EXTT2=
EXTT3=
EXTT4=
EXTT5=
EXTT6=
EXTT7=
EXTT8=
EXTT9=
EXTT10=
EXTT11=
EXTT12=
EXTT13=
EXTT14=
EXTT15=
PLAYORDER=
